<svg preserveAspectRatio="none" overflow="visible" style="display: block;" width="222.794" height="23.4361" viewBox="0 0 222.794 23.4361" fill="none" xmlns="http://www.w3.org/2000/svg">
<g id="Group">
<path id="Vector" d="M15.6777 21.6181L13.4583 15.9069L5.24166 15.8361L2.95138 21.5237H2.33904e-06L8.85415 0.18921H10.1291L18.6291 21.6181H15.6777ZM9.44442 5.12164L6.20972 13.3109L12.5847 13.3581L9.46804 5.12164H9.44442Z" fill="#A21E24"/>
<path id="Vector_2" d="M25.4999 18.9277C23.3985 16.8509 22.3597 14.2549 22.3833 11.0453C22.4069 7.83564 23.493 5.14523 25.6888 3.09202C27.8846 0.991611 30.4819 -0.0231979 33.5513 0.000402204C35.4874 0.000402204 37.2819 0.448804 38.911 1.34561C40.5638 2.21881 41.8388 3.35163 42.736 4.79123L40.7054 6.41964C39.0054 4.08323 36.4791 2.62002 33.5513 2.62002C31.2138 2.62002 29.2305 3.39882 27.6013 5.00362C25.9721 6.60843 25.1458 8.66164 25.1222 11.1161C25.0986 13.5705 25.8777 15.5529 27.4596 17.1105C29.0416 18.6681 31.0249 19.4705 33.4096 19.4941C36.4082 19.4941 38.8638 18.2905 40.7527 15.8361L42.7124 17.4881C40.7055 20.2493 37.211 22.0665 33.3152 22.0429C30.2458 22.0429 27.6485 20.9809 25.5236 18.9277H25.4999Z" fill="#A21E24"/>
<path id="Vector_3" d="M50.3866 19.1165C48.2852 17.0397 47.2463 14.4437 47.2699 11.2341C47.2935 8.02448 48.3797 5.33407 50.5755 3.28086C52.7713 1.18044 55.3685 0.165645 58.438 0.189245C60.3741 0.189245 62.1685 0.637647 63.7977 1.53445C65.4504 2.40766 66.7255 3.54046 67.6227 4.98007L65.5921 6.60847C63.8921 4.27206 61.3657 2.80886 58.438 2.80886C56.1005 2.80886 54.1171 3.58766 52.488 5.19247C50.8588 6.79728 50.0324 8.85049 50.0088 11.3049C49.9852 13.7593 50.7644 15.7417 52.3463 17.2993C53.9283 18.8569 55.9116 19.6593 58.2963 19.6829C61.2949 19.6829 63.7504 18.4793 65.6393 16.0249L67.599 17.6769C65.5921 20.4381 62.0977 22.2554 58.2019 22.2318C55.1324 22.2318 52.5352 21.1698 50.4102 19.1165H50.3866Z" fill="#A21E24"/>
<path id="Vector_4" d="M73.6895 22.0429L73.8547 0.684815L86.9589 0.779217V3.32803L76.4992 3.25723L76.4519 9.93606L86.1089 10.0069V12.5557L76.4283 12.4849L76.3811 19.5413L86.8408 19.6121V22.1609L73.6895 22.0665V22.0429Z" fill="#A21E24"/>
<path id="Vector_5" d="M91.8945 18.0781L93.9959 16.4969C95.1056 18.857 96.9473 19.9898 99.025 20.0134C101.551 20.0134 103.086 18.5501 103.11 16.6857C103.11 15.4821 102.378 14.4201 100.867 13.5705C100.465 13.3345 99.7098 12.9805 98.6473 12.4849C97.5848 11.9893 96.8056 11.5409 96.2862 11.2341C94.1848 9.86531 93.1223 8.16609 93.1459 6.16009C93.1459 4.53168 93.7362 3.18647 94.9167 2.12447C96.0737 1.03886 97.6084 0.496059 99.4973 0.519659C102.118 0.519659 104.172 1.62886 105.66 3.75287L103.747 5.40488C102.638 3.82367 101.221 3.04487 99.5209 3.02127C97.5612 3.02127 96.0501 4.17768 96.0265 5.99488C96.0265 7.15129 96.6167 8.1189 97.8209 8.8741C98.1987 9.1101 99.025 9.5585 100.324 10.1957C101.646 10.8329 102.567 11.3049 103.063 11.6353C105.046 12.8625 106.061 14.5145 106.038 16.5677C106.038 18.3613 105.353 19.8246 104.007 20.9574C102.708 22.0666 101.056 22.6094 99.0487 22.5858C96.0029 22.5858 93.2403 20.981 91.9181 18.0781H91.8945Z" fill="#A21E24"/>
<path id="Vector_6" d="M110.641 18.1961L112.742 16.6149C113.852 18.9749 115.693 20.1077 117.771 20.1313C120.298 20.1313 121.832 18.6681 121.856 16.8037C121.856 15.6 121.124 14.538 119.613 13.6884C119.211 13.4524 118.456 13.0984 117.393 12.6028C116.331 12.1072 115.552 11.6588 115.032 11.352C112.931 9.98323 111.868 8.28401 111.892 6.278C111.892 4.6496 112.482 3.30439 113.663 2.24239C114.82 1.15678 116.355 0.613979 118.243 0.637579C120.864 0.637579 122.918 1.74678 124.406 3.87079L122.493 5.5228C121.384 3.94159 119.967 3.16279 118.267 3.13919C116.307 3.13919 114.796 4.2956 114.773 6.1128C114.773 7.26921 115.363 8.23682 116.567 8.99202C116.945 9.22802 117.771 9.67642 119.07 10.3136C120.392 10.9508 121.313 11.4228 121.809 11.7532C123.792 12.9804 124.807 14.6324 124.784 16.6857C124.784 18.4793 124.099 19.9425 122.753 21.0753C121.454 22.1845 119.802 22.7273 117.795 22.7037C114.749 22.7037 111.986 21.0989 110.664 18.1961H110.641Z" fill="#A21E24"/>
<path id="Vector_7" d="M133.261 3.98883C135.457 1.84122 138.054 0.755612 141.1 0.779212C144.145 0.779212 146.743 1.91202 148.891 4.10683C151.04 6.30164 152.102 8.89765 152.079 11.9421C152.055 14.9865 150.945 17.5825 148.75 19.7301C146.554 21.8541 143.933 22.8925 140.84 22.8925C137.747 22.8925 135.15 21.8069 133.048 19.6829C130.97 17.5589 129.955 14.9865 129.979 11.9185C129.979 8.82685 131.089 6.16004 133.284 4.01243L133.261 3.98883ZM146.837 17.9129C148.443 16.3317 149.269 14.3493 149.293 11.9421C149.293 9.53486 148.514 7.50524 146.932 5.87684C145.35 4.24843 143.39 3.42243 141.076 3.39883C138.762 3.39883 136.779 4.17762 135.197 5.80603C133.591 7.41084 132.765 9.39325 132.741 11.8005C132.741 14.1605 133.497 16.1665 135.079 17.7949C136.661 19.3997 138.62 20.2257 140.958 20.2493C143.295 20.2729 145.255 19.4705 146.837 17.8893V17.9129Z" fill="#A21E24"/>
<path id="Vector_8" d="M170.07 22.7509L164.404 13.9009H161.405L161.334 22.7037H158.666L158.832 1.32201L165.938 1.36922C168.04 1.36922 169.669 2.03001 170.802 3.28082C171.959 4.53163 172.526 6.01844 172.502 7.71764C172.502 9.13365 172.054 10.4081 171.133 11.5645C170.236 12.7209 168.984 13.4525 167.355 13.7593L173.352 22.7981H170.023L170.07 22.7509ZM161.476 3.89443L161.429 11.3285H165.301C168.3 11.3757 169.763 9.74725 169.787 7.62324C169.811 5.49923 168.418 3.94162 165.962 3.91802H161.476V3.89443Z" fill="#A21E24"/>
<path id="Vector_9" d="M179.845 1.44006H182.513L182.348 22.8218H179.68L179.845 1.44006Z" fill="#A21E24"/>
<path id="Vector_10" d="M190.447 22.8925L190.613 1.53442L203.717 1.62883V4.17763L193.257 4.10684L193.21 10.7857L202.867 10.8565V13.4053L193.186 13.3345L193.139 20.3909L203.599 20.4617V23.0105L190.447 22.9161V22.8925Z" fill="#A21E24"/>
<path id="Vector_11" d="M208.65 18.9278L210.752 17.3465C211.861 19.7066 213.703 20.8394 215.781 20.863C218.307 20.863 219.842 19.3998 219.866 17.5353C219.866 16.3317 219.134 15.2697 217.623 14.4201C217.221 14.1841 216.466 13.8301 215.403 13.3345C214.341 12.8389 213.561 12.3905 213.042 12.0837C210.941 10.7149 209.878 9.0157 209.902 7.00969C209.902 5.38129 210.492 4.03608 211.673 2.97408C212.83 1.88847 214.364 1.34567 216.253 1.36927C218.874 1.36927 220.928 2.47847 222.416 4.60248L220.503 6.25449C219.393 4.67328 217.977 3.89447 216.277 3.87087C214.317 3.87087 212.806 5.02729 212.782 6.84449C212.782 8.0009 213.373 8.9685 214.577 9.7237C214.955 9.9597 215.781 10.4081 217.08 11.0453C218.402 11.6825 219.323 12.1545 219.818 12.4849C221.802 13.7121 222.817 15.3641 222.793 17.4173C222.793 19.211 222.109 20.6742 220.763 21.807C219.464 22.9162 217.811 23.459 215.805 23.4354C212.759 23.4354 209.996 21.8306 208.674 18.9278H208.65Z" fill="#A21E24"/>
</g>
</svg>
