<svg preserveAspectRatio="none" overflow="visible" style="display: block;" width="9.96823" height="24.5" viewBox="0 0 9.96823 24.5" fill="none" xmlns="http://www.w3.org/2000/svg">
<g id="Group 20">
<path id="Ellipse 5" d="M9.46823 12.25C9.46823 15.5845 8.91748 18.5802 8.04538 20.7236C7.60887 21.7965 7.10153 22.6315 6.56394 23.1904C6.0276 23.748 5.49344 24 4.98386 24C4.47436 23.9999 3.94099 23.7479 3.40476 23.1904C2.86711 22.6315 2.35987 21.7966 1.92331 20.7236C1.0512 18.5802 0.500459 15.5845 0.500459 12.25C0.50046 8.91548 1.0512 5.91984 1.92331 3.77637C2.35987 2.70343 2.86712 1.86848 3.40476 1.30957C3.94099 0.752125 4.47436 0.500088 4.98386 0.5C5.49344 0.5 6.0276 0.752013 6.56394 1.30957C7.10153 1.86851 7.60887 2.7035 8.04538 3.77637C8.91748 5.91984 9.46823 8.9155 9.46823 12.25Z" stroke="#F5F3F1"/>
<path id="Vector 86" d="M4.98399 6.62305L4.98399 14.7542C4.98399 15.5333 6.06317 15.7335 6.34263 15.0062L7.00457 13.2836L7.40869 12.232" stroke="#F5F3F1" stroke-linecap="round"/>
<path id="Vector 87" d="M3.58859 15.68L2.19304 12.25" stroke="#F5F3F1" stroke-linecap="round"/>
</g>
</svg>
